General
Complete name                    : Dead.Fish.2004.avi
Format                           : AVI
File size                        : 1.37 GiB
Duration                         : 1h 30mn
Overall bit rate                 : 2 162 Kbps


Video

Format                           : MPEG-4 Visual
Codec ID/Hint                    : XviD
Duration                         : 1h 30mn
Bit rate                         : 2 025 Kbps
Width                            : 720 pixels
Height                           : 420 pixels
Display aspect ratio             : 16:9
Stream size                      : 1.28 GiB (94%)
Writing library                  : XviD 1.2.1 (UTC 2008-12-04)

Audio

Format                           : MPEG Audio
Codec ID/Hint                    : MP3
Duration                         : 1h 30mn
Bit rate                         : 128 Kbps
Channel(s)                       : 2 channels
Sampling rate                    : 48.0 KHz
Stream size                      : 82.9 MiB (6%)
Writing library                  : LAME3.97 

 
http://www.imdb.com/title/tt0379240/